:FULLY-SPECIFIED
:FORCE-ALL-JOINTS-BE-3DOF
:DEGREES
918
root -0.210839 14.1234 -36.3288 12.3512 -26.8079 -16.4838
lfemur -64.5553 31.4569 -0.508475
ltibia 69.7871 -0 0
lfoot -6.94852 -9.8455 0.000875829
ltoes -9.74968 0 0
rfemur 6.2199 -8.41126 13.4154
rtibia 38.4731 -0 0
rfoot -22.3484 -29.0736 0.00172533
rtoes -27.518 0 0
lowerback 11.3786 -0.0646267 6.76949
upperback -1.57898 1.27293 5.64558
thorax -8.10331 0.4311 1.98579
lowerneck -3.78712 7.79117 2.58089
upperneck 4.10607 10.2958 -0.845076
head 2.11931 5.15034 -0.376707
lclavicle -1.22253e-014 -6.55989e-015 0
lhumerus 10.5663 5.233 71.3745
lradius 15.757 -0 0
lwrist -38.7356 0 0
lhand -27.7042 28.6356 -0.0353529
lfingers 7.12502 -0 0
lthumb -1.10003 58.5962 -0.0334265
rclavicle -1.22253e-014 -6.55989e-015 0
rhumerus -76.8279 21.3757 -96.3061
rradius 110.066 -0 0
rwrist -67.8448 0 0
rhand -10.8904 -24.6012 -0.000560064
rfingers 7.12502 -0 0
rthumb 15.1261 -54.0282 -0.000503143
919
root -0.202179 14.1141 -36.3216 12.312 -26.8008 -16.5309
lfemur -64.6226 31.5395 -0.526605
ltibia 69.956 -0 0
lfoot -6.99795 -9.94425 0.00101038
ltoes -9.45265 0 0
rfemur 6.27858 -8.40313 13.4061
rtibia 38.5207 -0 0
rfoot -22.3578 -29.074 0.00160414
rtoes -27.5402 0 0
lowerback 11.3542 -0.0782409 6.79159
upperback -1.55903 1.25709 5.7046
thorax -8.06932 0.424381 2.03933
lowerneck -3.80371 7.79624 2.63043
upperneck 4.17931 10.3013 -0.875255
head 2.15128 5.15301 -0.390996
lclavicle -1.22253e-014 -6.55989e-015 0
lhumerus 10.3819 4.42996 71.6776
lradius 15.8484 -0 0
lwrist -37.7811 0 0
lhand -27.3544 28.5191 -0.031576
lfingers 7.12502 -0 0
lthumb -0.762296 58.4831 -0.0298561
rclavicle -1.22253e-014 -6.55989e-015 0
rhumerus -76.8264 21.3612 -96.2527
rradius 110.023 -0 0
rwrist -67.8094 0 0
rhand -10.8581 -24.6315 -0.000503945
rfingers 7.12502 -0 0
rthumb 15.1572 -54.0562 -0.000454962
920
root -0.193519 14.1048 -36.3145 12.2755 -26.7955 -16.5771
lfemur -64.6915 31.6213 -0.546633
ltibia 70.1256 -0 0
lfoot -7.04549 -10.0386 0.00107889
ltoes -9.15712 0 0
rfemur 6.33559 -8.39763 13.393
rtibia 38.5658 -0 0
rfoot -22.3692 -29.0687 0.00143903
rtoes -27.5691 0 0
lowerback 11.3299 -0.0920484 6.81387
upperback -1.5399 1.24102 5.76371
thorax -8.03619 0.417506 2.09292
lowerneck -3.81946 7.8016 2.67849
upperneck 4.25269 10.3073 -0.90507
head 2.1831 5.15592 -0.404962
lclavicle -1.22253e-014 -6.55989e-015 0
lhumerus 10.2104 3.53036 71.9784
lradius 15.9989 -0 0
lwrist -36.761 0 0
lhand -27.0176 28.4191 -0.0270423
lfingers 7.12502 -0 0
lthumb -0.437009 58.3862 -0.0255697
rclavicle -1.22253e-014 -6.55989e-015 0
rhumerus -76.8247 21.3487 -96.2013
rradius 109.984 -0 0
rwrist -67.7743 0 0
rhand -10.8291 -24.66 -0.000435217
rfingers 7.12502 -0 0
rthumb 15.1851 -54.0826 -0.000395058
921
root -0.184859 14.0955 -36.3074 12.2424 -26.7914 -16.6224
lfemur -64.7637 31.7023 -0.569818
ltibia 70.2961 -0 0
lfoot -7.09116 -10.1282 0.00106891
ltoes -8.86514 0 0
rfemur 6.39125 -8.39558 13.3757
rtibia 38.6065 -0 0
rfoot -22.3823 -29.0573 0.00123053
rtoes -27.6065 0 0
lowerback 11.3055 -0.106217 6.83665
upperback -1.52185 1.22457 5.82285
thorax -8.00419 0.410376 2.14636
lowerneck -3.83405 7.80725 2.72471
upperneck 4.32563 10.3137 -0.934358
head 2.21447 5.15906 -0.418529
lclavicle -1.22253e-014 -6.55989e-015 0
lhumerus 10.0556 2.5272 72.2756
lradius 16.214 -0 0
lwrist -35.6747 0 0
lhand -26.6967 28.338 -0.021935
lfingers 7.12502 -0 0
lthumb -0.127078 58.3079 -0.0207407
rclavicle -1.22253e-014 -6.55989e-015 0
rhumerus -76.8229 21.338 -96.1525
rradius 109.949 -0 0
rwrist -67.7397 0 0
rhand -10.8039 -24.6864 -0.000356529
rfingers 7.12502 -0 0
rthumb 15.2094 -54.1073 -0.000325589
922
root -0.176198 14.0862 -36.3003 12.2134 -26.7876 -16.6667
lfemur -64.8411 31.7825 -0.597429
ltibia 70.4681 -0 0
lfoot -7.13498 -10.2126 0.000968167
ltoes -8.57881 0 0
rfemur 6.44584 -8.39784 13.3539
rtibia 38.6411 -0 0
rfoot -22.3971 -29.0392 0.000979959
rtoes -27.654 0 0
lowerback 11.2811 -0.120914 6.86025
upperback -1.50513 1.20758 5.882
thorax -7.9736 0.402892 2.19947
lowerneck -3.84712 7.81319 2.76873
upperneck 4.39751 10.3207 -0.962957
head 2.24512 5.16246 -0.431621
lclavicle -1.22253e-014 -6.55989e-015 0
lhumerus 9.92129 1.41343 72.5679
lradius 16.4989 -0 0
lwrist -34.5213 0 0
lhand -26.3947 28.2782 -0.0164592
lfingers 7.12502 -0 0
lthumb 0.164586 58.2507 -0.0155633
rclavicle -1.22253e-014 -6.55989e-015 0
rhumerus -76.8212 21.3292 -96.1067
rradius 109.919 -0 0
rwrist -67.7056 0 0
rhand -10.7828 -24.7106 -0.000270766
rfingers 7.12502 -0 0
rthumb 15.2297 -54.13 -0.00024893
923
root -0.167538 14.0768 -36.2931 12.1894 -26.7834 -16.7101
lfemur -64.9256 31.862 -0.630741
ltibia 70.6417 -0 0
lfoot -7.17695 -10.2914 0.00076451
ltoes -8.30019 0 0
rfemur 6.49967 -8.40524 13.3272
rtibia 38.6677 -0 0
rfoot -22.4135 -29.0139 0.000689366
rtoes -27.7132 0 0
lowerback 11.2567 -0.136306 6.88499
upperback -1.49 1.18989 5.9411
thorax -7.94468 0.394958 2.25207
lowerneck -3.85835 7.81942 2.8102
upperneck 4.46772 10.3283 -0.990704
head 2.27476 5.16613 -0.444164
lclavicle -1.22253e-014 -6.55989e-015 0
lhumerus 9.8114 0.181972 72.8536
lradius 16.8592 -0 0
lwrist -33.3001 0 0
lhand -26.1146 28.2422 -0.0108329
lfingers 7.12502 -0 0
lthumb 0.43507 58.2168 -0.0102435
rclavicle -1.22253e-014 -6.55989e-015 0
rhumerus -76.8198 21.3222 -96.0645
rradius 109.895 -0 0
rwrist -67.6722 0 0
rhand -10.7665 -24.7324 -0.000180893
rfingers 7.12502 -0 0
rthumb 15.2454 -54.1506 -0.000167542
924
root -0.158878 14.0675 -36.286 12.171 -26.778 -16.7525
lfemur -65.0188 31.9408 -0.671037
ltibia 70.8173 -0 0
lfoot -7.21709 -10.3641 0.000445827
ltoes -8.03136 0 0
rfemur 6.55305 -8.41862 13.2952
rtibia 38.6845 -0 0
rfoot -22.4311 -28.9807 0.00036155
rtoes -27.7857 0 0
lowerback 11.2323 -0.15256 6.91117
upperback -1.47673 1.17135 6.00013
thorax -7.9177 0.386475 2.30398
lowerneck -3.86739 7.82594 2.84876
upperneck 4.53568 10.3364 -1.01744
head 2.30309 5.17007 -0.456081
lclavicle -1.22253e-014 -6.55989e-015 0
lhumerus 9.72974 -1.17432 73.1311
lradius 17.3004 -0 0
lwrist -32.0105 0 0
lhand -25.8595 28.2324 -0.00527616
lfingers 7.12502 -0 0
lthumb 0.681465 58.2088 -0.00498929
rclavicle -1.22253e-014 -6.55989e-015 0
rhumerus -76.8189 21.3171 -96.0264
rradius 109.878 -0 0
rwrist -67.6395 0 0
rhand -10.7554 -24.7515 -8.97761e-005
rfingers 7.12502 -0 0
rthumb 15.2561 -54.1689 -8.38316e-005
925
root -0.150218 14.0582 -36.2789 372.159 -26.7707 343.206
lfemur -65.1227 32.0189 -0.71961
ltibia 70.9954 0 0
lfoot -7.25541 -10.4304 0
ltoes -7.77438 0 0
rfemur 6.60628 -8.4388 13.2575
rtibia 38.6896 0 0
rfoot -22.4499 -28.9393 0
rtoes -27.8734 0 0
lowerback 11.2078 -0.169842 6.93913
upperback -1.46556 1.1518 6.05903
thorax -7.89293 0.377348 2.35501
lowerneck -3.87389 7.83276 2.88405
upperneck 4.60076 10.3451 -1.04299
head 2.32985 5.1743 -0.467298
lclavicle -1.22253e-014 -6.55989e-015 0
lhumerus 9.68028 -2.6626 73.398
lradius 17.8277 0 0
lwrist -30.6517 0 0
lhand -25.6323 28.2512 0
lfingers 7.12502 0 0
lthumb 0.90086 58.229 0
rclavicle -1.22253e-014 -6.55989e-015 0
rhumerus -76.8186 21.3138 -95.993
rradius 109.868 0 0
rwrist -67.6076 0 0
rhand -10.7499 -24.7678 0
rfingers 7.12502 0 0
rthumb 15.2614 -54.1848 0
926
root -0.140495 14.0506 -36.267 12.1523 -26.7649 -16.8342
lfemur -65.2332 32.0966 -0.774088
ltibia 71.1761 -0 0
lfoot -7.28945 -10.4904 -0.000473958
ltoes -7.51641 0 0
rfemur 6.65755 -8.46519 13.2128
rtibia 38.6882 -0 0
rfoot -22.4728 -28.8869 -0.000426465
rtoes -27.9769 0 0
lowerback 11.1826 -0.187522 6.96886
upperback -1.45599 1.13198 6.11846
thorax -7.86947 0.367976 2.40568
lowerneck -3.87834 7.83987 2.91658
upperneck 4.66596 10.3544 -1.06795
head 2.35616 5.17881 -0.47798
lclavicle -3.42904e-015 -4.45278e-014 0
lhumerus 9.63509 -4.34074 73.6644
lradius 18.4421 -0 0
lwrist -29.1596 0 0
lhand -25.4224 28.3009 0.0051255
lfingers 7.12502 -0 0
lthumb 1.10356 58.2796 0.00485356
rclavicle -3.42904e-015 -4.45278e-014 0
rhumerus -76.8182 21.3137 -95.9637
rradius 109.864 -0 0
rwrist -67.5792 0 0
rhand -10.752 -24.7795 8.58092e-005
rfingers 7.12502 -0 0
rthumb 15.2593 -54.1967 8.19868e-005
927
root -0.130772 14.043 -36.255 12.1493 -26.7643 -16.873
lfemur -65.3449 32.1739 -0.831047
ltibia 71.3593 -0 0
lfoot -7.31721 -10.5449 -0.00086527
ltoes -7.24466 0 0
rfemur 6.70506 -8.49631 13.1604
rtibia 38.6867 -0 0
rfoot -22.5022 -28.822 -0.000931642
rtoes -28.0948 0 0
lowerback 11.1562 -0.204893 6.99997
upperback -1.44729 1.11267 6.17897
thorax -7.84629 0.358797 2.45664
lowerneck -3.88153 7.84725 2.94719
upperneck 4.73437 10.3643 -1.09296
head 2.38327 5.18359 -0.488349
lclavicle -3.42904e-015 -4.45278e-014 0
lhumerus 9.56504 -6.2465 73.9417
lradius 19.1379 -0 0
lwrist -27.484 0 0
lhand -25.2176 28.3801 0.0102153
lfingers 7.12502 -0 0
lthumb 1.30132 58.3593 0.00968414
rclavicle -3.42904e-015 -4.45278e-014 0
rhumerus -76.8169 21.3177 -95.9377
rradius 109.864 -0 0
rwrist -67.5561 0 0
rhand -10.7628 -24.7854 0.000164919
rfingers 7.12502 -0 0
rthumb 15.249 -54.2033 0.000159689
